<?xml version="1.0" standalone="no"?>
<!DOCTYPE svg PUBLIC "-//W3C//DTD SVG 20010904//EN"
 "http://www.w3.org/TR/2001/REC-SVG-20010904/DTD/svg10.dtd">
<svg version="1.0" xmlns="http://www.w3.org/2000/svg"
 width="260.000000pt" height="260.000000pt" viewBox="0 0 260.000000 260.000000"
 preserveAspectRatio="xMidYMid meet">
<metadata>
Created by potrace 1.11, written by Peter Selinger 2001-2013
</metadata>
<g transform="translate(0.000000,260.000000) scale(0.100000,-0.100000)"
fill="#000000" stroke="none">
<path d="M410 1300 l0 -1300 450 0 450 0 0 419 0 419 353 1 c193 0 368 0 388
1 l37 0 -2 387 -1 388 -375 1 c-206 1 -381 2 -387 3 -18 2 -18 177 0 183 6 2
204 3 440 2 l427 0 0 183 c1 235 1 522 0 573 l0 40 -890 0 -890 0 0 -1300z"/>
</g>
</svg>
